# xmcd
#
# Track frame offsets: 
#        150
#        14535
#        35700
#        52235
#        70585
#        88425
#        110140
#        128697
#        151650
#        173622
#        199957
#
# Disc length: 2803 seconds
#
# Revision: 3
# Processed by: cddbd v1.5.2PL0 Copyright (c) Steve Scherf et al.
# Submitted via: ExactAudioCopyFreeDBPlugin 1.0
#
DISCID=9a0af10b
DTITLE=George "Wild Child" Butler - Lickin' Gravy
DYEAR=1998
DGENRE=Blues
TTITLE0=Everybody Got a Mojo
TTITLE1=Gravy Child
TTITLE2=Funky Butt Lover
TTITLE3=None of Nothing
TTITLE4=Built For Comfort
TTITLE5=I Love You From Now On
TTITLE6=Spoonful
TTITLE7=My Baby Got Another Man
TTITLE8=Rooster Blues
TTITLE9=Love Like A Butterfuly
TTITLE10=Speed
EXTD=YEAR: 1998
EXTT0=
EXTT1=
EXTT2=
EXTT3=
EXTT4=
EXTT5=
EXTT6=
EXTT7=
EXTT8=
EXTT9=
EXTT10=
PLAYORDER=
